# xmcd
#
# Track frame offsets:
#	150
#	60104
#	88871
#	108446
#	133546
#	148587
#	168548
#	184322
#	204692
#	225227
#	253859
#	282957
#	309379
#	324920
#
# Disc length: 4581
#
# Revision: 1
# Processed by: cddbd v1.5.1PL0 Copyright (c) Steve Scherf et al.
# Submitted via: audiograbber 1.81.03
# Normalized: r0:DSETVAR2
#
DISCID=c211e30e
DTITLE=Various Artist - xxx
DYEAR=1900
DGENRE=
TTITLE0=DJ Deep - Italo Dance Megamix 2003__Exte
TTITLE1=Ago - Tell me Where you Are (A1)
TTITLE2=Alain bax - JUST LIKE A MURDER
TTITLE3=Covergirl - Believe (Extended Version)
TTITLE4=dj - goldfinger_welcome_to_the_costa_brava
TTITLE5=Axel Force - Bring Me To Life (Factory Team
TTITLE6=50 Cent vs Dsico - In Da Club (dsico dancehall mi
TTITLE7=Eminem - Cleanin out closet(Gabry Ponte
TTITLE8=Free Drink - On The Table (Chupito Remix)
TTITLE9=Gollum And Yanny - Delirio Mind (Club Mix)
TTITLE10=Interphace - The Rhythm Of The Night
TTITLE11=Loft - Summer Summer (Club Mix)
TTITLE12=Molella - Desert Of Love (Radio Edit)
TTITLE13=Plastique - To The Beat
EXTD=
EXTT0=
EXTT1=
EXTT2=
EXTT3=
EXTT4=
EXTT5=
EXTT6=
EXTT7=
EXTT8=
EXTT9=
EXTT10=
EXTT11=
EXTT12=
EXTT13=
PLAYORDER=
